<svg xmlns="http://www.w3.org/2000/svg" width="26" height="26" viewBox="0 0 26 26">
  <path id="Exclusion_53" data-name="Exclusion 53" d="M13,26A13,13,0,0,1,3.808,3.808,13,13,0,1,1,22.192,22.192,12.915,12.915,0,0,1,13,26Zm-1.876-8.851a6.583,6.583,0,0,0,.389,1.391,4.152,4.152,0,0,0,.308.62c.025.04.052.081.08.121a3.3,3.3,0,0,0,.364.371,2.007,2.007,0,0,0-.217.913,2.035,2.035,0,1,0,4.07,0c0-.059,0-.12-.009-.193a5.625,5.625,0,0,1-1.066.174c-.082,0-.164.007-.242.007-.111,0-.221,0-.325-.014a3.208,3.208,0,0,1-.55-.108c.045,0,.09,0,.125,0a3.3,3.3,0,0,0,.424-.028A3.629,3.629,0,0,0,15,20.3a5.248,5.248,0,0,0,1-.387,4.8,4.8,0,0,0,.878-.564,3.314,3.314,0,0,0,.247-.225,3.327,3.327,0,0,0,.54-2.85l-.142-.014a5.524,5.524,0,0,1-2.42-.906,5.479,5.479,0,0,0,2.117.455c.106,0,.212,0,.315-.011a4.46,4.46,0,0,0,.547-.073,4.948,4.948,0,0,0-1.088-9.775,4.919,4.919,0,0,0-1.33.183,8.371,8.371,0,0,0-.885.411,6.925,6.925,0,0,0-1.136.833A6.207,6.207,0,0,0,12.7,8.448a6.3,6.3,0,0,1,.78-1.228,7.329,7.329,0,0,1,1.039-1.054A6.354,6.354,0,0,1,15.3,5.61,5.133,5.133,0,0,0,6.127,8.772c0,.089,0,.182.009.292l.01,0,.02-.009a7.547,7.547,0,0,1,1.623-.5,6.836,6.836,0,0,1,1.255-.119c.139,0,.278,0,.414.014a6.545,6.545,0,0,0-1.611.329,7.224,7.224,0,0,0-1.468.684,6.49,6.49,0,0,0-.613.426,5.458,5.458,0,0,0,5.349,9.219c-.024-.151-.042-.3-.054-.464a6.93,6.93,0,0,1,.061-1.492Zm3.792-3.25h0a8.292,8.292,0,0,0-.348-1.455,6.6,6.6,0,0,0-1.545-2.48,8.172,8.172,0,0,0-1.157-.958,4.1,4.1,0,0,1,1.35.744,4.707,4.707,0,0,1,1.033,1.172,4.653,4.653,0,0,1,.6,1.443A4.1,4.1,0,0,1,14.915,13.9Z" fill="#dcdcdc"/>
</svg>
