<svg xmlns="http://www.w3.org/2000/svg" width="25.998" height="26" viewBox="0 0 25.998 26">
  <g id="Group_1818" data-name="Group 1818" transform="translate(630 1216)">
    <path id="Exclusion_5" data-name="Exclusion 5" d="M13,26A13,13,0,0,1,3.807,3.808,13,13,0,0,1,22.191,22.192,12.914,12.914,0,0,1,13,26ZM15.829,5.052h0l-9.2.894V19.627l9.2,1.173V19.627h3.484V5.945H15.829V5.052Zm2.648,13.728H15.829V6.793h2.648V18.778Zm-7.995-1.711h0V13.232H9.351V8.551l3.758-.373-1.5,3.773h1.5Z" transform="translate(-630 -1216)" fill="#dcdcdc"/>
    <path id="Path_2122" data-name="Path 2122" d="M340.031,296.252v4.68h1.129v3.84l2.629-5.121h-1.5l1.5-3.773Z" transform="translate(-960.681 -1503.701)" fill="#dcdcdc"/>
    <rect id="Rectangle_654" data-name="Rectangle 654" width="2.648" height="11.986" transform="translate(-614.171 -1209.207)" fill="#dcdcdc"/>
  </g>
</svg>
