<svg id="Group_1680" data-name="Group 1680" xmlns="http://www.w3.org/2000/svg" width="26" height="26" viewBox="0 0 26 26">
  <circle id="Ellipse_10" data-name="Ellipse 10" cx="13" cy="13" r="13" fill="#f7bc3a"/>
  <path id="Path_2362" data-name="Path 2362" d="M-9.6,0h5.13V-1.32h-3.51V-7H-9.6Zm9.06.12a2.9,2.9,0,0,0,3.17-3.2V-7h-1.6v3.86c0,1.33-.57,1.88-1.56,1.88s-1.56-.55-1.56-1.88V-7h-1.62v3.92A2.9,2.9,0,0,0-.545.12ZM10.405,0,7.8-3.62,10.235-7H8.485L6.905-4.73,5.3-7H3.455l2.46,3.44L3.325,0h1.86l1.66-2.43L8.535,0Z" transform="translate(13 16)" fill="#fff"/>
</svg>
