<svg xmlns="http://www.w3.org/2000/svg" width="26" height="26" viewBox="0 0 26 26">
  <path id="Exclusion_51" data-name="Exclusion 51" d="M13,26A13,13,0,0,1,3.808,3.808,13,13,0,1,1,22.192,22.192,12.915,12.915,0,0,1,13,26ZM12.7,4a2.493,2.493,0,0,0-2.49,2.49v6.524a4.7,4.7,0,1,0,4.977,0V6.49A2.491,2.491,0,0,0,12.7,4ZM17.63,9.5a.864.864,0,0,0,0,1.729h3.442a.864.864,0,1,0,0-1.729Zm0-3.317a.864.864,0,1,0,0,1.728h3.442a.864.864,0,1,0,0-1.728ZM12.7,20.038a3.039,3.039,0,0,1-1.3-5.787.832.832,0,0,0,.475-.749V11.467a.829.829,0,1,1,1.658,0V13.5a.827.827,0,0,0,.473.749,3.04,3.04,0,0,1-1.3,5.787Z" fill="#dcdcdc"/>
</svg>
